<svg xmlns="http://www.w3.org/2000/svg" xmlns:xlink="http://www.w3.org/1999/xlink" width="500" zoomAndPan="magnify" viewBox="0 0 375 374.999991" height="500" preserveAspectRatio="xMidYMid meet" version="1.0"><defs><clipPath id="id1"><path d="M 63.050781 26.964844 L 312.050781 26.964844 L 312.050781 347.964844 L 63.050781 347.964844 Z M 63.050781 26.964844 " clip-rule="nonzero"/></clipPath></defs><rect x="-37.5" width="450" fill="rgb(100%, 100%, 100%)" y="-37.499999" height="449.999989" fill-opacity="1"/><rect x="-37.5" width="450" fill="rgb(100%, 100%, 100%)" y="-37.499999" height="449.999989" fill-opacity="1"/><rect x="-37.5" width="450" fill="rgb(100%, 100%, 100%)" y="-37.499999" height="449.999989" fill-opacity="1"/><rect x="-37.5" width="450" fill="rgb(100%, 100%, 100%)" y="-37.499999" height="449.999989" fill-opacity="1"/><g clip-path="url(#id1)"><path fill="rgb(0%, 0%, 0%)" d="M 312.050781 323.714844 C 312.050781 238.058594 256.265625 168.664062 187.550781 168.664062 C 118.835938 168.664062 63.050781 238.058594 63.050781 323.714844 C 63.050781 337.074219 118.835938 347.960938 187.550781 347.960938 C 256.265625 347.960938 312.050781 337.074219 312.050781 323.714844 Z M 187.550781 26.964844 C 225.03125 26.964844 255.394531 57.308594 255.394531 94.765625 C 255.394531 132.222656 225.03125 162.566406 187.550781 162.566406 C 150.070312 162.566406 119.707031 132.222656 119.707031 94.765625 C 119.707031 57.308594 150.070312 26.964844 187.550781 26.964844 Z M 187.550781 26.964844 " fill-opacity="1" fill-rule="evenodd"/></g></svg>