<svg xmlns="http://www.w3.org/2000/svg" xmlns:xlink="http://www.w3.org/1999/xlink" width="500" zoomAndPan="magnify" viewBox="0 0 375 374.999991" height="500" preserveAspectRatio="xMidYMid meet" version="1.0"><defs><g/></defs><g fill="rgb(0%, 0%, 0%)" fill-opacity="1"><g transform="translate(0.0000045, 272.806003)"><g><path d="M 119.8125 0 L 108.046875 -38.640625 L 48.859375 -38.640625 L 37.09375 0 L 0 0 L 57.296875 -163.015625 L 99.390625 -163.015625 L 156.90625 0 Z M 99.828125 -67.515625 C 88.941406 -102.535156 82.8125 -122.335938 81.4375 -126.921875 C 80.070312 -131.515625 79.097656 -135.144531 78.515625 -137.8125 C 76.066406 -128.332031 69.066406 -104.898438 57.515625 -67.515625 Z M 99.828125 -67.515625 "/></g></g></g><g fill="rgb(0%, 0%, 0%)" fill-opacity="1"><g transform="translate(156.907209, 272.806003)"><g><path d="M 54.859375 -85.953125 L 66.1875 -85.953125 C 76.769531 -85.953125 84.6875 -88.039062 89.9375 -92.21875 C 95.195312 -96.40625 97.828125 -102.492188 97.828125 -110.484375 C 97.828125 -118.554688 95.625 -124.515625 91.21875 -128.359375 C 86.8125 -132.210938 79.910156 -134.140625 70.515625 -134.140625 L 54.859375 -134.140625 Z M 132.59375 -111.71875 C 132.59375 -94.238281 127.128906 -80.875 116.203125 -71.625 C 105.285156 -62.375 89.757812 -57.75 69.625 -57.75 L 54.859375 -57.75 L 54.859375 0 L 20.4375 0 L 20.4375 -162.34375 L 72.296875 -162.34375 C 91.984375 -162.34375 106.953125 -158.101562 117.203125 -149.625 C 127.460938 -141.15625 132.59375 -128.519531 132.59375 -111.71875 Z M 132.59375 -111.71875 "/></g></g></g><g fill="rgb(0%, 0%, 0%)" fill-opacity="1"><g transform="translate(299.711615, 272.806003)"><g><path d="M 20.4375 0 L 20.4375 -162.34375 L 54.859375 -162.34375 L 54.859375 0 Z M 20.4375 0 "/></g></g></g></svg>