<svg xmlns="http://www.w3.org/2000/svg" xmlns:xlink="http://www.w3.org/1999/xlink" width="500" zoomAndPan="magnify" viewBox="0 0 375 374.999991" height="500" preserveAspectRatio="xMidYMid meet" version="1.0"><defs><g/></defs><g fill="rgb(0%, 0%, 0%)" fill-opacity="1"><g transform="translate(37.500002, 238.109023)"><g><path d="M 23.578125 0 L 3.484375 0 L 23.84375 -96.3125 L 77.46875 -96.3125 L 73.921875 -79.578125 L 40.453125 -79.578125 L 35.25 -54.75 L 66.40625 -54.75 L 62.71875 -38.078125 L 31.5625 -38.078125 Z M 23.578125 0 "/></g></g></g><g fill="rgb(0%, 0%, 0%)" fill-opacity="1"><g transform="translate(109.110881, 238.109023)"><g><path d="M 34.921875 -53.5625 L 40.0625 -53.5625 C 45.8125 -53.5625 50.285156 -54.8125 53.484375 -57.3125 C 56.691406 -59.820312 58.296875 -63.644531 58.296875 -68.78125 C 58.296875 -72.382812 57.253906 -75.082031 55.171875 -76.875 C 53.085938 -78.675781 49.804688 -79.578125 45.328125 -79.578125 L 40.453125 -79.578125 Z M 31.421875 -36.953125 L 23.578125 0 L 3.484375 0 L 23.84375 -96.3125 L 47.5 -96.3125 C 57.90625 -96.3125 65.722656 -94.070312 70.953125 -89.59375 C 76.179688 -85.113281 78.796875 -78.550781 78.796875 -69.90625 C 78.796875 -62.957031 76.972656 -56.988281 73.328125 -52 C 69.679688 -47.019531 64.429688 -43.320312 57.578125 -40.90625 L 74.78125 0 L 52.90625 0 L 39.265625 -36.953125 Z M 31.421875 -36.953125 "/></g></g></g><g fill="rgb(0%, 0%, 0%)" fill-opacity="1"><g transform="translate(191.262458, 238.109023)"><g><path d="M 57.3125 0 L 3.484375 0 L 23.84375 -96.3125 L 77.734375 -96.3125 L 74.1875 -79.578125 L 40.453125 -79.578125 L 36.03125 -58.4375 L 67.46875 -58.4375 L 63.84375 -41.703125 L 32.40625 -41.703125 L 27.140625 -16.859375 L 60.875 -16.859375 Z M 57.3125 0 "/></g></g></g><g fill="rgb(0%, 0%, 0%)" fill-opacity="1"><g transform="translate(264.388543, 238.109023)"><g><path d="M 57.3125 0 L 3.484375 0 L 23.84375 -96.3125 L 77.734375 -96.3125 L 74.1875 -79.578125 L 40.453125 -79.578125 L 36.03125 -58.4375 L 67.46875 -58.4375 L 63.84375 -41.703125 L 32.40625 -41.703125 L 27.140625 -16.859375 L 60.875 -16.859375 Z M 57.3125 0 "/></g></g></g></svg>